<svg width="19" height="20" viewBox="0 0 19 20" fill="none" xmlns="http://www.w3.org/2000/svg">
<path fill-rule="evenodd" clip-rule="evenodd" d="M0.393765 0.20497C0.545598 0.0891294 0.727426 0.0191882 0.91775 0.00341647C1.10807 -0.0123553 1.29894 0.026702 1.46777 0.11597L18.4678 9.11597C18.6285 9.20098 18.763 9.32821 18.8569 9.48397C18.9507 9.63973 19.0003 9.81813 19.0003 9.99997C19.0003 10.1818 18.9507 10.3602 18.8569 10.516C18.763 10.6717 18.6285 10.799 18.4678 10.884L1.46777 19.884C1.29903 19.9732 1.10828 20.0123 0.918038 19.9967C0.727796 19.981 0.546013 19.9112 0.394166 19.7955C0.242318 19.6798 0.126751 19.5231 0.0611158 19.3439C-0.0045195 19.1646 -0.0174802 18.9703 0.0237651 18.784L1.97576 9.99997L0.0237651 1.21697C-0.0176152 1.03056 -0.00476225 0.836208 0.0608044 0.656874C0.126371 0.47754 0.24191 0.320727 0.393765 0.20497ZM3.80177 11L2.44577 17.103L13.9738 11H3.80177ZM13.9738 8.99997H3.80177L2.44577 2.89697L13.9738 8.99997Z" fill="white"/>
</svg>
