<svg width="35" height="20" viewBox="0 0 35 20" fill="none" xmlns="http://www.w3.org/2000/svg">
<path fill-rule="evenodd" clip-rule="evenodd" d="M16.3938 0.20497C16.5456 0.0891294 16.7274 0.0191882 16.9178 0.00341647C17.1081 -0.0123553 17.2989 0.026702 17.4678 0.11597L34.4678 9.11597C34.6285 9.20098 34.763 9.32821 34.8569 9.48397C34.9507 9.63973 35.0003 9.81813 35.0003 9.99997C35.0003 10.1818 34.9507 10.3602 34.8569 10.516C34.763 10.6717 34.6285 10.799 34.4678 10.884L17.4678 19.884C17.299 19.9732 17.1083 20.0123 16.918 19.9967C16.7278 19.981 16.546 19.9112 16.3942 19.7955C16.2423 19.6798 16.1268 19.5231 16.0611 19.3439C15.9955 19.1646 15.9825 18.9703 16.0238 18.784L17.9758 9.99997L16.0238 1.21697C15.9824 1.03056 15.9952 0.836208 16.0608 0.656874C16.1264 0.47754 16.2419 0.320727 16.3938 0.20497ZM19.8018 11L18.4458 17.103L29.9738 11H19.8018ZM29.9738 8.99997H19.8018L18.4458 2.89697L29.9738 8.99997Z" fill="white"/>
<rect x="4" y="4" width="8" height="2" rx="1" fill="white"/>
<rect x="4" y="14" width="8" height="2" rx="1" fill="white"/>
<rect y="9" width="12" height="2" rx="1" fill="white"/>
</svg>
