<svg width="32" height="32" viewBox="0 0 32 32" fill="none" xmlns="http://www.w3.org/2000/svg">
    <path d="M31 29V3C31 1.89543 30.1046 1 29 1H3C1.89543 1 1 1.89543 1 3V29C1 30.1046 1.89543 31 3 31H29C30.1046 31 31 30.1046 31 29Z"
          stroke="#979797" stroke-width="2"/>
    <path d="M20.12 26C19.243 26 18.3741 25.8056 17.5903 25.4359C17.0329 25.5273 16.5534 25.5703 16.0984 25.5703C10.8102 25.5703 6.50781 21.32 6.50781 16.0957C6.50781 15.5869 6.55832 15.0576 6.66162 14.4857C6.22797 13.6622 6 12.743 6 11.8086C6 8.60574 8.63824 6 11.8812 6C12.8904 6 13.8764 6.25482 14.7511 6.73944C15.1495 6.68817 15.5854 6.66406 16.0984 6.66406C18.6538 6.66406 21.0526 7.64261 22.853 9.41919C24.6557 11.1982 25.6484 13.5694 25.6484 16.096C25.6484 16.7654 25.6028 17.3332 25.5059 17.8582C25.834 18.5911 26 19.3746 26 20.1914C26 23.3943 23.3622 26 20.12 26ZM17.837 23.8049L18.077 23.9324C18.6981 24.2628 19.4045 24.4375 20.12 24.4375C22.5007 24.4375 24.4375 22.5327 24.4375 20.1914C24.4375 19.5275 24.2875 18.8951 23.9915 18.3116L23.8645 18.061L23.926 17.787C24.0351 17.3011 24.0859 16.7639 24.0859 16.096C24.0859 11.7568 20.5027 8.22656 16.0984 8.22656C15.5485 8.22656 15.1118 8.25708 14.7238 8.32285L14.4322 8.37213L14.181 8.21603C13.4931 7.78848 12.6978 7.5625 11.8812 7.5625C9.49991 7.5625 7.5625 9.46725 7.5625 11.8086C7.5625 12.5639 7.76697 13.3053 8.15378 13.9527L8.30957 14.2137L8.24823 14.5114C8.12845 15.091 8.07031 15.6092 8.07031 16.0957C8.07031 20.4585 11.6717 24.0078 16.0984 24.0078C16.5261 24.0078 16.9937 23.9588 17.5698 23.8537L17.837 23.8049ZM21.0391 18.1431C21.0391 17.5813 20.9281 17.0982 20.7069 16.7072C20.4856 16.318 20.1745 15.9921 19.7831 15.7377C19.3983 15.4887 18.926 15.2754 18.3805 15.1008C17.8413 14.9297 17.2315 14.7723 16.5682 14.6305C16.0433 14.51 15.6614 14.4161 15.4337 14.3537C15.2113 14.2928 14.99 14.2065 14.7743 14.0994C14.5663 13.9961 14.4026 13.8717 14.2848 13.7313C14.1749 13.5974 14.0859 13.4426 14.0859 13.2571C14.0859 12.9539 14.2877 12.6985 14.6302 12.4758C14.9847 12.2442 15.4623 12.1484 16.0497 12.1484C16.6816 12.1484 17.1435 12.2337 17.4185 12.4415C17.7024 12.6548 17.9498 12.9594 18.1538 13.3462C18.3306 13.6483 18.4899 13.859 18.6433 13.9939C18.8082 14.1383 19.0464 14.2031 19.3499 14.2031C19.6836 14.2031 19.9676 14.0946 20.1913 13.8629C20.415 13.6323 20.5703 13.3674 20.5703 13.0763C20.5703 12.7743 20.4412 12.4618 20.2711 12.1478C20.1022 11.8363 19.8354 11.5373 19.4743 11.2565C19.1169 10.9782 18.6605 10.7531 18.1213 10.5863C17.5836 10.4193 16.9395 10.3359 16.2071 10.3359C15.2923 10.3359 14.4825 10.4615 13.8033 10.7119C13.1138 10.9649 12.5775 11.3358 12.2123 11.8099C11.8421 12.2878 11.625 12.8428 11.625 13.4588C11.625 14.1052 11.8328 14.6533 12.1847 15.0916C12.5317 15.5222 13.0049 15.8665 13.5938 16.1155C14.1682 16.358 14.8902 16.5724 15.7409 16.7538C16.3664 16.8852 16.8725 17.0097 17.2456 17.1249C17.6014 17.2349 17.8971 17.3965 18.121 17.6043C18.3329 17.8018 18.449 18.0547 18.449 18.3766C18.449 18.7834 18.2372 19.1171 17.8291 19.3939C17.4117 19.6772 16.8568 19.7891 16.1791 19.7891C15.6857 19.7891 15.2854 19.7502 14.9883 19.6096C14.6926 19.4718 14.461 19.2928 14.3012 19.0824C14.1326 18.8612 13.9744 18.5835 13.8291 18.252C13.6994 17.949 13.5388 17.713 13.3489 17.5543C13.1513 17.3885 12.9083 17.2891 12.6269 17.2891C12.2843 17.2891 11.9964 17.411 11.7712 17.6203C11.5449 17.8321 11.4297 18.0915 11.4297 18.3897C11.4297 18.8677 11.6062 19.3632 11.9557 19.8612C12.2985 20.3552 12.7537 20.7565 13.3045 21.052C14.0739 21.4587 15.0617 21.6641 16.2393 21.6641C17.2192 21.6641 18.0816 21.5132 18.7997 21.2167C19.5258 20.9174 20.0857 20.4949 20.4652 19.9612C20.846 19.4261 21.0383 18.8143 21.0391 18.1431Z"
          fill="#979797"/>
</svg>
