<svg width="45" height="43" viewBox="0 0 45 43" fill="none" xmlns="http://www.w3.org/2000/svg">
<path d="M41.0449 0H3.95508C1.77425 0 0 1.77425 0 3.95508V30.3223C0 32.5031 1.77425 34.2773 3.95508 34.2773H7.99805V40.8691C7.99805 41.4024 8.31929 41.8831 8.81191 42.0871C9.30463 42.2911 9.87161 42.1784 10.2487 41.8013L17.7726 34.2773H41.0449C43.2258 34.2773 45 32.5031 45 30.3223V3.95508C45 1.77425 43.2258 0 41.0449 0ZM42.3633 30.3223C42.3633 31.0492 41.7719 31.6406 41.0449 31.6406H17.2266C16.8769 31.6406 16.5416 31.7796 16.2944 32.0268L10.6348 37.6863V32.959C10.6348 32.2309 10.0445 31.6406 9.31641 31.6406H3.95508C3.22813 31.6406 2.63672 31.0492 2.63672 30.3223V3.95508C2.63672 3.22813 3.22813 2.63672 3.95508 2.63672H41.0449C41.7719 2.63672 42.3633 3.22813 42.3633 3.95508V30.3223Z" fill="white"/>
<path d="M22.5 5.27344C15.9575 5.27344 10.6348 10.5962 10.6348 17.1387C10.6348 23.6812 15.9575 29.0039 22.5 29.0039C29.0425 29.0039 34.3652 23.6812 34.3652 17.1387C34.3652 10.5962 29.0425 5.27344 22.5 5.27344ZM22.5 26.3672C17.4114 26.3672 13.2715 22.2273 13.2715 17.1387C13.2715 12.0501 17.4114 7.91016 22.5 7.91016C27.5886 7.91016 31.7285 12.0501 31.7285 17.1387C31.7285 22.2273 27.5886 26.3672 22.5 26.3672Z" fill="white"/>
<path d="M27.1613 20.1595C25.9178 18.9159 24.2624 18.231 22.5003 18.231C20.7382 18.231 19.0829 18.9159 17.8392 20.1595C17.3244 20.6744 17.3244 21.5091 17.8392 22.024C18.354 22.5387 19.1888 22.5388 19.7036 22.024C20.4492 21.2784 21.4425 20.8677 22.5002 20.8677C23.558 20.8677 24.5512 21.2783 25.2968 22.024C25.8119 22.5389 26.6465 22.5387 27.1613 22.024C27.6761 21.5091 27.6761 20.6744 27.1613 20.1595Z" fill="white"/>
<path d="M18.5449 15.8203C19.273 15.8203 19.8633 15.2301 19.8633 14.502C19.8633 13.7738 19.273 13.1836 18.5449 13.1836C17.8168 13.1836 17.2266 13.7738 17.2266 14.502C17.2266 15.2301 17.8168 15.8203 18.5449 15.8203Z" fill="white"/>
<path d="M26.4551 15.8203C27.1832 15.8203 27.7734 15.2301 27.7734 14.502C27.7734 13.7738 27.1832 13.1836 26.4551 13.1836C25.727 13.1836 25.1367 13.7738 25.1367 14.502C25.1367 15.2301 25.727 15.8203 26.4551 15.8203Z" fill="white"/>
</svg>
