<svg width="45" height="41" viewBox="0 0 45 41" fill="none" xmlns="http://www.w3.org/2000/svg">
<path d="M44.9975 12.9155C44.7927 2.68966 32.3143 -4.84653 22.5 3.73511C12.6923 -4.84099 0.207379 2.68465 0.00254317 12.9155C-0.0725339 16.6638 1.51595 20.2727 4.59605 23.3521C4.6044 23.3609 10.8482 29.5704 21.5697 40.2336C22.0842 40.7454 22.9156 40.7455 23.4303 40.2336L40.4039 23.3521C43.484 20.2728 45.0724 16.6638 44.9975 12.9155ZM22.5 37.4387L8.01768 23.035H12.6514C13.1147 23.035 13.544 22.7919 13.7824 22.3948L14.7947 20.708L18.5732 26.6441C19.1289 27.5173 20.4337 27.4384 20.878 26.5006L26.0926 15.4949L29.7802 22.3416C30.0103 22.7686 30.4562 23.0351 30.9415 23.0351H36.9821L22.5 37.4387ZM39.5337 20.3976H31.7295L27.1787 11.9483C26.6685 11.0011 25.2889 11.0305 24.8254 12.009L19.5165 23.2136L15.8746 17.492C15.3436 16.6573 14.1306 16.6888 13.6308 17.5214L11.9046 20.3977H5.46655C3.56132 18.1068 2.58813 15.5626 2.64 12.9684C2.80466 4.74584 13.286 -1.80626 21.5673 6.47296C22.082 6.98751 22.9177 6.98795 23.4327 6.47296C34.0061 -4.09813 48.5423 9.5673 39.5337 20.3976Z" fill="white"/>
</svg>
