<svg width="45" height="40" viewBox="0 0 45 40" fill="none" xmlns="http://www.w3.org/2000/svg">
<path d="M43.6899 5.27378C43.6871 5.27378 43.6844 5.27344 43.6816 5.27344H31.7285V3.95508C31.7285 1.77429 29.9542 0 27.7734 0H17.2266C15.0458 0 13.2715 1.77429 13.2715 3.95508V5.27344H1.31836C0.584335 5.27344 0 5.87494 0 6.5918V35.5957C0 37.7765 1.77429 39.5508 3.95508 39.5508H41.0449C43.2257 39.5508 45 37.7765 45 35.5957V6.61961C45 6.61789 45 6.61617 45 6.61446C44.9495 5.7486 44.417 5.27859 43.6899 5.27378ZM15.9082 3.95508C15.9082 3.22826 16.4997 2.63672 17.2266 2.63672H27.7734C28.5003 2.63672 29.0918 3.22826 29.0918 3.95508V5.27344H15.9082V3.95508ZM41.8524 7.91016L37.7583 20.1922C37.5787 20.7315 37.0761 21.0938 36.5079 21.0938H29.0918V19.7754C29.0918 19.0472 28.5016 18.457 27.7734 18.457H17.2266C16.4984 18.457 15.9082 19.0472 15.9082 19.7754V21.0938H8.49209C7.92389 21.0938 7.42126 20.7315 7.24171 20.1922L3.14758 7.91016H41.8524ZM26.4551 21.0938V23.7305H18.5449V21.0938H26.4551ZM42.3633 35.5957C42.3633 36.3225 41.7717 36.9141 41.0449 36.9141H3.95508C3.22826 36.9141 2.63672 36.3225 2.63672 35.5957V14.7158L4.74026 21.0261C5.27927 22.6439 6.78715 23.7305 8.49209 23.7305H15.9082V25.0488C15.9082 25.777 16.4984 26.3672 17.2266 26.3672H27.7734C28.5016 26.3672 29.0918 25.777 29.0918 25.0488V23.7305H36.5079C38.2129 23.7305 39.7207 22.6439 40.2597 21.0261L42.3633 14.7158V35.5957Z" fill="white"/>
</svg>
