<svg width="45" height="35" viewBox="0 0 45 35" fill="none" xmlns="http://www.w3.org/2000/svg">
<path d="M43.0969 15.2003L43.2018 14.9902C45.3594 10.6749 43.2693 6.95505 43.2148 6.67705L43.1675 6.59531C40.4575 1.91091 35.2226 -0.625621 29.8299 0.132701C27.1539 0.509137 24.5673 1.76132 22.503 3.86665C20.4411 1.76387 17.8558 0.509664 15.1761 0.132701C9.78356 -0.625621 4.54835 1.911 1.83859 6.5954L1.79139 6.67714C1.73716 6.9532 -0.362198 10.657 1.80431 14.9902L1.9089 15.1995L0 19.3781L2.20826 21.7951L3.64782 26.1139C4.09756 27.463 5.35527 28.3696 6.77743 28.3696C7.1834 28.3696 7.58788 28.3545 7.98998 28.3246V34.3079C8.39744 34.3079 36.6079 34.3079 37.0163 34.3079V28.3248C37.4184 28.3547 37.8228 28.3697 38.2288 28.3697C39.651 28.3697 40.9088 27.4631 41.3584 26.114L42.7983 21.7942L44.9999 19.3777L43.0969 15.2003ZM21.1811 31.6687H10.6292V27.9079C14.4263 26.9811 16.4283 25.0993 17.9591 24.1893L16.4951 21.9933C15.1103 22.7298 12.1781 25.7305 6.77735 25.7305C6.49293 25.7305 6.24139 25.5492 6.15148 25.2794L4.53464 20.4288L3.12592 18.8869L4.83382 15.1481L4.16479 13.8099C2.61985 10.7198 4.12779 8.04788 4.16936 7.83774C6.35108 4.13947 10.517 2.14232 14.8085 2.74622C17.145 3.07493 19.2455 4.20916 20.8387 5.93226C20.3822 6.62722 19.9859 7.3662 19.658 8.13964C18.7343 10.3177 18.3765 12.7101 18.6232 15.0581C18.8772 17.4756 19.7371 19.7614 21.1809 21.8593V31.6687H21.1811ZM22.0878 9.16998C22.215 8.8701 22.3542 8.57909 22.5031 8.29591C22.6521 8.57909 22.7912 8.8701 22.9184 9.16998C24.2723 12.3627 24.1062 15.8321 22.5031 18.9403C20.9001 15.8321 20.7339 12.3626 22.0878 9.16998ZM40.4712 20.4298L38.8547 25.2795C38.7648 25.5493 38.5132 25.7306 38.2288 25.7306C32.8248 25.7306 29.8891 22.7263 28.511 21.9934L27.047 24.1894C28.5824 25.102 30.5813 26.9817 34.3769 27.908V31.6688H23.8202V22.4316H23.8252V21.8592C25.269 19.7614 26.1291 17.4755 26.3829 15.058C26.6297 12.71 26.2718 10.3176 25.3481 8.13946C25.02 7.36611 24.6238 6.62713 24.1673 5.93209C25.7605 4.20908 27.8611 3.07476 30.1975 2.74613C34.4899 2.14232 38.655 4.13929 40.8369 7.83765C40.8819 8.06529 42.3929 10.7068 40.8414 13.8098L40.1727 15.1472L41.8764 18.8873L40.4712 20.4298Z" fill="white"/>
</svg>
