<svg width="32" height="32" viewBox="0 0 32 32" fill="none" xmlns="http://www.w3.org/2000/svg">
    <path d="M10.515 19.6426L12.8016 18.6494L12.16 19.2926C11.9543 19.4982 11.8391 19.7767 11.8391 20.0655V24.3457C11.8391 25.3257 13.0233 25.8011 13.7058 25.1186L16.0012 22.8232L21.0033 25.3242C21.6508 25.648 22.4339 25.2644 22.5681 24.5411L25.422 8.84797C25.5722 8.0036 24.741 7.3211 23.9462 7.63318L5.40203 14.8913C4.57078 15.2151 4.45995 16.3526 5.21245 16.8323L9.4912 19.5624C9.79745 19.7578 10.1839 19.7884 10.515 19.6426ZM22.9195 10.3865L20.6781 22.7167L16.2739 20.5161C15.8481 20.3032 15.3406 20.3921 15.0125 20.7217L14.0266 21.7076V20.5219L18.4118 16.1367C19.262 15.2865 18.3054 13.8836 17.2029 14.3605L10.1781 17.4084L8.20349 16.1484L22.9195 10.3865Z"
          fill="#333333"/>
    <path d="M31 29V3C31 1.89543 30.1046 1 29 1H3C1.89543 1 1 1.89543 1 3V29C1 30.1046 1.89543 31 3 31H29C30.1046 31 31 30.1046 31 29Z"
          stroke="#333333" stroke-width="2"/>
</svg>
