<svg width="32" height="36" viewBox="0 0 32 36" fill="none" xmlns="http://www.w3.org/2000/svg">
    <path d="M18.8136 17.7709C18.4133 17.3704 17.7641 17.3704 17.3636 17.7709L16.5353 18.599L13.3256 15.3896L14.1539 14.5615C14.3462 14.3692 14.4543 14.1084 14.4543 13.8363C14.4543 13.5644 14.3462 13.3035 14.1539 13.1113L10.2708 9.22814C10.0785 9.03588 9.8179 8.92773 9.5458 8.92773C9.27396 8.92773 9.01308 9.03588 8.82081 9.22814L6.10246 11.9465C4.63247 13.4165 4.63247 15.8088 6.10273 17.2796L14.6452 25.8226C15.3555 26.5327 16.3027 26.9236 17.3118 26.9236C18.3212 26.9236 19.2683 26.5327 19.9786 25.8226L22.697 23.1046C22.8892 22.912 22.9974 22.6514 22.9974 22.3793C22.9974 22.1075 22.8892 21.8466 22.697 21.6543L18.8136 17.7709ZM18.5284 24.3721C18.2055 24.695 17.7735 24.8728 17.3118 24.8728C16.8501 24.8728 16.4181 24.695 16.0952 24.3721L7.55296 15.8294C6.88219 15.1586 6.88192 14.067 7.5527 13.3965L9.5458 11.4031L11.9787 13.8363L11.1504 14.6643C10.9581 14.8566 10.85 15.1175 10.85 15.3893C10.85 15.6614 10.9581 15.922 11.1504 16.1145L15.81 20.7742C16.2106 21.1745 16.8597 21.1747 17.2603 20.7742L18.0886 19.9461L20.5215 22.379L18.5284 24.3721Z"
          fill="#333333"/>
    <path d="M16.335 5.53613C15.7686 5.53613 15.3096 5.99516 15.3096 6.56152C15.3096 7.12762 15.7686 7.58691 16.335 7.58691C18.6816 7.58691 20.8881 8.50069 22.5474 10.1603C24.207 11.8196 25.1207 14.0258 25.1207 16.3727C25.1207 16.9388 25.5798 17.3981 26.1461 17.3981C26.7122 17.3981 27.1715 16.9391 27.1715 16.3727C27.1715 13.4781 26.0444 10.7568 23.9976 8.71004C21.9508 6.66326 19.2296 5.53613 16.335 5.53613Z"
          fill="#333333"/>
    <path d="M20.7276 16.3723C20.7276 16.9384 21.1869 17.3977 21.753 17.3977C22.3193 17.3977 22.7784 16.9384 22.7784 16.3723C22.7784 12.8195 19.8878 9.9292 16.335 9.9292C15.7686 9.9292 15.3096 10.3882 15.3096 10.9546C15.3096 11.521 15.7686 11.98 16.335 11.98C18.7572 11.98 20.7276 13.9504 20.7276 16.3723Z"
          fill="#333333"/>
    <path d="M31 28.5V3C31 1.89543 30.1046 1 29 1H3C1.89543 1 1 1.89543 1 3V28.5C1 29.6046 1.89543 30.5 3 30.5H7.07216C7.98309 30.5 8.77893 31.1155 9.00793 31.9972L9.56925 34.1583C9.77176 34.9379 10.7659 35.1704 11.2931 34.5614L14.2114 31.1909C14.5912 30.7521 15.143 30.5 15.7234 30.5H29C30.1046 30.5 31 29.6046 31 28.5Z"
          stroke="#333333" stroke-width="2"/>
</svg>
