<svg width="45" height="45" viewBox="0 0 45 45" fill="none" xmlns="http://www.w3.org/2000/svg">
<path d="M22.5 0L0 16.7117V44.9724H45V16.7117L22.5 0ZM27.334 20.5388H17.666V17.4626C17.666 14.7972 19.8345 12.6287 22.5 12.6287C25.1655 12.6287 27.334 14.7972 27.334 17.4626V20.5388ZM29.9707 23.1755V27.5317L26.1701 30.0549L24.7252 29.0716C23.3734 28.1517 21.6266 28.1517 20.275 29.0716L18.83 30.0549L15.0293 27.5317V23.1755H29.9707ZM16.4758 31.6569L2.63672 41.0744V22.4692L16.4758 31.6569ZM21.7583 31.2514C22.2089 30.9449 22.7912 30.9449 23.2418 31.2514L39.5302 42.3357H5.46987L21.7583 31.2514ZM28.5243 31.6569L42.3633 22.4692V41.0744L28.5243 31.6569ZM22.5 3.28447L42.3633 18.0377V19.3042L32.6074 25.7811V20.5388H29.9707V17.4626C29.9707 13.3433 26.6193 9.99193 22.5 9.99193C18.3807 9.99193 15.0293 13.3433 15.0293 17.4626V20.5388H12.3926V25.7811L2.63672 19.3042V18.0377L22.5 3.28447Z" fill="white"/>
</svg>
