<svg width="45" height="40" viewBox="0 0 45 40" fill="none" xmlns="http://www.w3.org/2000/svg">
<path d="M0 27.8961C0 28.9673 1.21359 29.5904 2.08397 28.9694L9.3324 23.7986C9.94034 23.3649 10.6565 23.1357 11.4034 23.1357H27.3451C30.1513 23.1357 32.4342 20.8528 32.4342 18.0467V1.31836C32.4342 0.590273 31.8439 0 31.1158 0H5.08904C2.28296 0 0 2.28287 0 5.08904L0 27.8961ZM2.63672 5.08904C2.63672 3.73676 3.73685 2.63672 5.08904 2.63672H29.7974V18.0467C29.7974 19.399 28.6973 20.499 27.3451 20.499H11.4033C10.1043 20.499 8.85867 20.8978 7.80117 21.6521L2.63672 25.3362V5.08904Z" fill="white"/>
<path d="M44.9999 15.3148C44.9999 12.5083 42.7171 10.2251 39.9111 10.2251H36.3893C35.6612 10.2251 35.0709 10.8154 35.0709 11.5435C35.0709 12.2715 35.6612 12.8618 36.3893 12.8618H39.9111C41.2633 12.8618 42.3632 13.9623 42.3632 15.3148V35.5617L37.1988 31.8777C36.1414 31.1234 34.8959 30.7247 33.597 30.7247H17.6545C16.3023 30.7247 15.2024 29.6242 15.2024 28.2717V27.0905C15.2024 26.3624 14.6121 25.7722 13.884 25.7722C13.1559 25.7722 12.5657 26.3624 12.5657 27.0905V28.2717C12.5657 31.0782 14.8485 33.3614 17.6545 33.3614H33.597C34.3438 33.3614 35.0599 33.5906 35.6677 34.0242L42.916 39.1948C43.782 39.8128 45 39.1961 45 38.1216V15.3148H44.9999Z" fill="white"/>
<path d="M9.47998 9.81886H24.7118C25.4399 9.81886 26.0301 9.22858 26.0301 8.50049C26.0301 7.7724 25.4399 7.18213 24.7118 7.18213H9.47998C8.75189 7.18213 8.16162 7.7724 8.16162 8.50049C8.16162 9.22858 8.75189 9.81886 9.47998 9.81886Z" fill="white"/>
<path d="M9.47998 15.9712H24.7118C25.4399 15.9712 26.0301 15.3809 26.0301 14.6528C26.0301 13.9247 25.4399 13.3345 24.7118 13.3345H9.47998C8.75189 13.3345 8.16162 13.9247 8.16162 14.6528C8.16162 15.3809 8.75189 15.9712 9.47998 15.9712Z" fill="white"/>
</svg>
