<svg width="45" height="45" viewBox="0 0 45 45" fill="none" xmlns="http://www.w3.org/2000/svg">
<g clip-path="url(#clip0)">
<path d="M31.2891 12.2168C31.7742 12.2168 32.168 11.823 32.168 11.3379C32.168 10.8528 31.7742 10.459 31.2891 10.459C30.8039 10.459 30.4102 10.8528 30.4102 11.3379C30.4102 11.823 30.8039 12.2168 31.2891 12.2168Z" fill="white"/>
<path d="M26.0156 12.2168C26.5007 12.2168 26.8945 11.823 26.8945 11.3379C26.8945 10.8528 26.5007 10.459 26.0156 10.459C25.5305 10.459 25.1367 10.8528 25.1367 11.3379C25.1367 11.823 25.5305 12.2168 26.0156 12.2168Z" fill="white"/>
<path d="M22.5 6.94336C22.9851 6.94336 23.3789 6.54957 23.3789 6.06445C23.3789 5.57934 22.9851 5.18555 22.5 5.18555C22.0149 5.18555 21.6211 5.57934 21.6211 6.06445C21.6211 6.54957 22.0149 6.94336 22.5 6.94336Z" fill="white"/>
<path d="M22.5 21.0059C22.0149 21.0059 21.6211 21.3996 21.6211 21.8848C21.6211 22.3699 22.0149 22.7637 22.5 22.7637C22.9851 22.7637 23.3789 22.3699 23.3789 21.8848C23.3789 21.3996 22.9851 21.0059 22.5 21.0059Z" fill="white"/>
<path d="M22.5 39.6387C22.0149 39.6387 21.6211 40.0325 21.6211 40.5176C21.6211 41.0027 22.0149 41.3965 22.5 41.3965C22.9851 41.3965 23.3789 41.0027 23.3789 40.5176C23.3789 40.0325 22.9851 39.6387 22.5 39.6387Z" fill="white"/>
<path d="M11.9531 21.0059C12.4382 21.0059 12.832 20.6121 12.832 20.127C12.832 19.6418 12.4382 19.248 11.9531 19.248C11.468 19.248 11.0742 19.6418 11.0742 20.127C11.0742 20.6121 11.468 21.0059 11.9531 21.0059Z" fill="white"/>
<path d="M22.5 -0.0878906C13.2921 -0.0878906 5.80078 7.40343 5.80078 16.6114C5.80078 19.8582 6.72226 22.9742 8.47218 25.6737C7.88166 26.3223 7.5586 27.1548 7.5586 28.0372C7.5586 29.6144 8.60264 30.952 10.0357 31.3962L7.57508 43.863C7.52426 44.1208 7.59156 44.3883 7.75841 44.5912C7.92527 44.7944 8.17452 44.9122 8.43751 44.9122H36.5626C36.8255 44.9122 37.0745 44.7944 37.2417 44.5912C37.4085 44.3883 37.4758 44.1208 37.4246 43.863L34.9644 31.3973C36.373 30.9633 37.4415 29.6436 37.4415 28.0372C37.4415 27.1476 37.1095 26.3106 36.5282 25.673C38.2778 22.9738 39.1993 19.8578 39.1993 16.6114C39.1993 7.40343 31.708 -0.0878906 22.5 -0.0878906ZM22.5 1.66993C30.7388 1.66993 37.4415 8.37263 37.4415 16.6114C37.4415 19.5135 36.6189 22.2978 35.0574 24.7107C34.6956 24.5875 34.3141 24.5215 33.9258 24.5215H11.0742C10.6852 24.5215 10.3038 24.5875 9.94229 24.7104C8.38086 22.2978 7.5586 19.5131 7.5586 16.6114C7.5586 8.37263 14.2613 1.66993 22.5 1.66993ZM9.50696 43.1544L9.85371 41.3966H18.9844C19.4699 41.3966 19.8633 41.0031 19.8633 40.5177C19.8633 40.0322 19.4699 39.6387 18.9844 39.6387H10.2005L11.7966 31.5528H33.2035L34.7992 39.6387H26.0157C25.5302 39.6387 25.1368 40.0322 25.1368 40.5177C25.1368 41.0031 25.5302 41.3966 26.0157 41.3966H35.1463L35.4931 43.1544H9.50696ZM33.9258 29.795H11.0742C10.105 29.795 9.31641 29.0064 9.31641 28.0372C9.31641 27.0456 10.126 26.2793 11.0742 26.2793H33.9258C34.8768 26.2793 35.6836 27.0484 35.6836 28.0372C35.6836 29.0081 34.8968 29.795 33.9258 29.795Z" fill="white"/>
<path d="M11.719 15.625L14.8405 16.6656C15.1014 16.7524 15.3091 16.9601 15.396 17.2214L16.4366 20.3426C16.5564 20.7013 16.8922 20.9434 17.2705 20.9434C17.6489 20.9434 17.9846 20.7013 18.1045 20.3426L19.1451 17.2214V17.2211C19.2319 16.9601 19.4396 16.7524 19.7009 16.6656L22.8221 15.625C23.1808 15.5051 23.4229 15.1694 23.4229 14.791C23.4229 14.413 23.1808 14.0769 22.8221 13.9574L19.7009 12.9168C19.4396 12.8296 19.2319 12.6219 19.1451 12.3606L18.1045 9.23983C17.9846 8.88071 17.6489 8.63867 17.2705 8.63867C16.8922 8.63867 16.5564 8.88071 16.4366 9.23983L15.396 12.3606C15.3088 12.6219 15.1014 12.83 14.8398 12.9168L11.719 13.9574C11.3602 14.0769 11.1182 14.413 11.1182 14.791C11.1182 15.1694 11.3602 15.5051 11.719 15.625ZM15.3956 14.5843C16.1788 14.3238 16.8022 13.7003 17.0635 12.9165L17.2705 12.2961L17.4772 12.9165C17.7385 13.6996 18.3619 14.3231 19.1451 14.5843L19.7651 14.791L19.1451 14.9981C18.3613 15.2593 17.7378 15.8828 17.4772 16.6659L17.2705 17.286L17.0638 16.6659C16.8029 15.8821 16.1791 15.2586 15.396 14.9981L14.7756 14.791L15.3956 14.5843Z" fill="white"/>
<path d="M25.1868 18.2252C25.1868 18.5583 25.3749 18.8625 25.6726 19.0115L27.7545 20.0521L28.7951 22.134C28.9438 22.4316 29.2483 22.6198 29.581 22.6198H29.5813C29.914 22.6198 30.2185 22.4316 30.3672 22.1343L31.4088 20.0521L33.4897 19.0115C33.7877 18.8625 33.9759 18.5583 33.9759 18.2252C33.9759 17.8926 33.7877 17.588 33.4897 17.4394L31.4088 16.3988L30.3672 14.3165C30.2182 14.0189 29.914 13.8307 29.581 13.8311C29.2479 13.8311 28.9438 14.0192 28.7951 14.3169L27.7545 16.3988L25.6726 17.4394C25.3749 17.588 25.1868 17.8922 25.1868 18.2252ZM28.8027 17.84C28.9729 17.7549 29.1106 17.6169 29.1958 17.4466L29.5817 16.6751L29.9676 17.4469C30.0527 17.6169 30.1907 17.7549 30.3607 17.84L31.1314 18.2252L30.3607 18.6108C30.1907 18.6959 30.0527 18.8336 29.9676 19.0039L29.5817 19.7757L29.1958 19.0039C29.1106 18.8336 28.9729 18.6959 28.8027 18.6108L28.0316 18.2252L28.8027 17.84Z" fill="white"/>
</g>
<defs>
<clipPath id="clip0">
<rect width="45" height="45" fill="white"/>
</clipPath>
</defs>
</svg>
