<svg width="35" height="45" viewBox="0 0 35 45" fill="none" xmlns="http://www.w3.org/2000/svg">
<path d="M31.7953 24.6057L34.7823 21.665L33.3635 17.7218L34.7823 13.7786L31.7953 10.838L31.3558 6.67116L27.3909 5.31896L25.1922 1.75113L21.0309 2.25352L17.5001 0L13.9692 2.25352L9.80796 1.75113L7.60938 5.31888L3.64436 6.67107L3.20482 10.838L0.217773 13.7786L1.63659 17.7218L0.217773 21.665L3.20482 24.6056L3.64428 28.7726L5.84567 29.5233L2.07262 41.3166L8.53188 40.9613L13.5855 45L16.7883 34.9893L17.5001 35.4437L18.2118 34.9893L21.4146 45L26.4682 40.9613L32.9274 41.3166L29.1544 29.5233L31.3557 28.7726L31.7953 24.6057ZM12.2396 40.5462L9.39268 38.2711L5.75374 38.4711L8.1456 30.9952L9.80778 33.6925L13.9691 33.1901L14.4873 33.5209L12.2396 40.5462ZM25.6074 38.2711L22.7605 40.5462L20.5128 33.5209L21.0309 33.1901L25.1922 33.6925L26.8544 30.9952L29.2463 38.4711L25.6074 38.2711ZM28.9081 26.819L25.6415 27.933L23.8316 30.87L20.4084 30.4567L17.5001 32.313L14.5918 30.4568L11.1684 30.8701L9.35849 27.933L6.09194 26.819L5.7301 23.3884L3.27276 20.9693L4.44127 17.7218L3.27276 14.4744L5.7301 12.0552L6.09194 8.62453L9.35849 7.51052L11.1684 4.57356L14.5917 4.98683L17.5001 3.13075L20.4084 4.98691L23.8317 4.57365L25.6416 7.51069L28.9082 8.62471L29.27 12.0553L31.7274 14.4744L30.5588 17.7219L31.7274 20.9694L29.27 23.3886L28.9081 26.819Z" fill="white"/>
<path d="M17.5 7.45215C11.8373 7.45215 7.23047 12.059 7.23047 17.7217C7.23047 23.3844 11.8373 27.9911 17.5 27.9911C23.1626 27.9911 27.7695 23.3843 27.7695 17.7216C27.7695 12.059 23.1626 7.45215 17.5 7.45215ZM17.5 25.3521C13.2925 25.3521 9.86947 21.9291 9.86947 17.7216C9.86947 13.5141 13.2925 10.0912 17.5 10.0912C21.7074 10.0912 25.1304 13.5142 25.1304 17.7216C25.1304 21.9291 21.7074 25.3521 17.5 25.3521Z" fill="white"/>
</svg>
